<svg width="564px" height="386px" viewBox="0 0 564 386" version="1.1" xmlns="http://www.w3.org/2000/svg" xmlns:xlink="http://www.w3.org/1999/xlink">
    <g id="Page-1" stroke="none" stroke-width="1" fill="none" fill-rule="evenodd">
        <g id="VOO-DOO" transform="translate(3.267578, 128.108887)" fill="#FFFFFF" fill-rule="nonzero" stroke="#101010" stroke-width="5">
            <path d="M66.8945312,2.07519531 L53.8330078,100.891113 L14.831543,100.891113 L0,2.07519531 L27.0996094,2.07519531 C30.2327474,29.296875 32.4707031,52.3071289 33.8134766,71.105957 C35.15625,52.1036784 36.5600586,35.2172852 38.0249023,20.4467773 L39.7949219,2.07519531 L66.8945312,2.07519531 Z" id="Path"></path>
            <path d="M130.004883,59.9365234 C130.004883,69.8649089 129.770915,76.8941243 129.302979,81.0241699 C128.835042,85.1542155 127.370199,88.9282227 124.908447,92.3461914 C122.446696,95.7641602 119.12028,98.3886719 114.929199,100.219727 C110.738118,102.050781 105.855306,102.966309 100.280762,102.966309 C94.9910482,102.966309 90.2404785,102.101644 86.0290527,100.372314 C81.817627,98.642985 78.4301758,96.0489909 75.8666992,92.590332 C73.3032227,89.1316732 71.7773438,85.3678385 71.2890625,81.2988281 C70.8007812,77.2298177 70.5566406,70.1090495 70.5566406,59.9365234 L70.5566406,43.0297852 C70.5566406,33.1013997 70.7906087,26.0721842 71.2585449,21.9421387 C71.7264811,17.8120931 73.1913249,14.0380859 75.6530762,10.6201172 C78.1148275,7.20214844 81.4412435,4.57763672 85.6323242,2.74658203 C89.8234049,0.915527344 94.7062174,0 100.280762,0 C105.570475,0 110.321045,0.864664714 114.532471,2.59399414 C118.743896,4.32332357 122.131348,6.91731771 124.694824,10.3759766 C127.258301,13.8346354 128.78418,17.5984701 129.272461,21.6674805 C129.760742,25.7364909 130.004883,32.8572591 130.004883,43.0297852 L130.004883,59.9365234 Z M104.309082,27.4658203 C104.309082,22.8678385 104.054769,19.9279785 103.546143,18.6462402 C103.037516,17.364502 101.989746,16.7236328 100.402832,16.7236328 C99.0600586,16.7236328 98.0326335,17.2424316 97.3205566,18.2800293 C96.6084798,19.317627 96.2524414,22.3795573 96.2524414,27.4658203 L96.2524414,73.6083984 C96.2524414,79.3457031 96.4864095,82.8857422 96.9543457,84.2285156 C97.4222819,85.5712891 98.5107422,86.2426758 100.219727,86.2426758 C101.969401,86.2426758 103.088379,85.4695638 103.57666,83.9233398 C104.064941,82.3771159 104.309082,78.6946615 104.309082,72.8759766 L104.309082,27.4658203 Z" id="Shape"></path>
            <path d="M198.303223,59.9365234 C198.303223,69.8649089 198.069255,76.8941243 197.601318,81.0241699 C197.133382,85.1542155 195.668538,88.9282227 193.206787,92.3461914 C190.745036,95.7641602 187.41862,98.3886719 183.227539,100.219727 C179.036458,102.050781 174.153646,102.966309 168.579102,102.966309 C163.289388,102.966309 158.538818,102.101644 154.327393,100.372314 C150.115967,98.642985 146.728516,96.0489909 144.165039,92.590332 C141.601562,89.1316732 140.075684,85.3678385 139.587402,81.2988281 C139.099121,77.2298177 138.85498,70.1090495 138.85498,59.9365234 L138.85498,43.0297852 C138.85498,33.1013997 139.088949,26.0721842 139.556885,21.9421387 C140.024821,17.8120931 141.489665,14.0380859 143.951416,10.6201172 C146.413167,7.20214844 149.739583,4.57763672 153.930664,2.74658203 C158.121745,0.915527344 163.004557,0 168.579102,0 C173.868815,0 178.619385,0.864664714 182.830811,2.59399414 C187.042236,4.32332357 190.429688,6.91731771 192.993164,10.3759766 C195.556641,13.8346354 197.08252,17.5984701 197.570801,21.6674805 C198.059082,25.7364909 198.303223,32.8572591 198.303223,43.0297852 L198.303223,59.9365234 Z M172.607422,27.4658203 C172.607422,22.8678385 172.353109,19.9279785 171.844482,18.6462402 C171.335856,17.364502 170.288086,16.7236328 168.701172,16.7236328 C167.358398,16.7236328 166.330973,17.2424316 165.618896,18.2800293 C164.90682,19.317627 164.550781,22.3795573 164.550781,27.4658203 L164.550781,73.6083984 C164.550781,79.3457031 164.784749,82.8857422 165.252686,84.2285156 C165.720622,85.5712891 166.809082,86.2426758 168.518066,86.2426758 C170.267741,86.2426758 171.386719,85.4695638 171.875,83.9233398 C172.363281,82.3771159 172.607422,78.6946615 172.607422,72.8759766 L172.607422,27.4658203 Z" id="Shape"></path>
            <path d="M362.121582,2.07519531 L381.347656,2.07519531 C393.758138,2.07519531 402.150472,2.64485677 406.524658,3.78417969 C410.898844,4.9235026 414.22526,6.7952474 416.503906,9.39941406 C418.782552,12.0035807 420.206706,14.9027507 420.776367,18.0969238 C421.346029,21.291097 421.630859,27.5675456 421.630859,36.9262695 L421.630859,71.5332031 C421.630859,80.4036458 421.213786,86.3342285 420.379639,89.3249512 C419.545492,92.3156738 418.09082,94.6553548 416.015625,96.3439941 C413.94043,98.0326335 411.376953,99.2126465 408.325195,99.8840332 C405.273438,100.55542 400.675456,100.891113 394.53125,100.891113 L362.121582,100.891113 L362.121582,2.07519531 Z M387.817383,18.9819336 L387.817383,83.984375 C391.520182,83.984375 393.798828,83.2417806 394.65332,81.7565918 C395.507812,80.271403 395.935059,76.2329102 395.935059,69.6411133 L395.935059,31.25 C395.935059,26.7740885 395.792643,23.9054362 395.507812,22.644043 C395.222982,21.3826497 394.57194,20.4569499 393.554688,19.8669434 C392.537435,19.2769368 390.625,18.9819336 387.817383,18.9819336 Z" id="Shape"></path>
            <path d="M489.929199,59.9365234 C489.929199,69.8649089 489.695231,76.8941243 489.227295,81.0241699 C488.759359,85.1542155 487.294515,88.9282227 484.832764,92.3461914 C482.371012,95.7641602 479.044596,98.3886719 474.853516,100.219727 C470.662435,102.050781 465.779622,102.966309 460.205078,102.966309 C454.915365,102.966309 450.164795,102.101644 445.953369,100.372314 C441.741943,98.642985 438.354492,96.0489909 435.791016,92.590332 C433.227539,89.1316732 431.70166,85.3678385 431.213379,81.2988281 C430.725098,77.2298177 430.480957,70.1090495 430.480957,59.9365234 L430.480957,43.0297852 C430.480957,33.1013997 430.714925,26.0721842 431.182861,21.9421387 C431.650798,17.8120931 433.115641,14.0380859 435.577393,10.6201172 C438.039144,7.20214844 441.36556,4.57763672 445.556641,2.74658203 C449.747721,0.915527344 454.630534,0 460.205078,0 C465.494792,0 470.245361,0.864664714 474.456787,2.59399414 C478.668213,4.32332357 482.055664,6.91731771 484.619141,10.3759766 C487.182617,13.8346354 488.708496,17.5984701 489.196777,21.6674805 C489.685059,25.7364909 489.929199,32.8572591 489.929199,43.0297852 L489.929199,59.9365234 Z M464.233398,27.4658203 C464.233398,22.8678385 463.979085,19.9279785 463.470459,18.6462402 C462.961833,17.364502 461.914062,16.7236328 460.327148,16.7236328 C458.984375,16.7236328 457.95695,17.2424316 457.244873,18.2800293 C456.532796,19.317627 456.176758,22.3795573 456.176758,27.4658203 L456.176758,73.6083984 C456.176758,79.3457031 456.410726,82.8857422 456.878662,84.2285156 C457.346598,85.5712891 458.435059,86.2426758 460.144043,86.2426758 C461.893717,86.2426758 463.012695,85.4695638 463.500977,83.9233398 C463.989258,82.3771159 464.233398,78.6946615 464.233398,72.8759766 L464.233398,27.4658203 Z" id="Shape"></path>
            <path d="M558.227539,59.9365234 C558.227539,69.8649089 557.993571,76.8941243 557.525635,81.0241699 C557.057699,85.1542155 555.592855,88.9282227 553.131104,92.3461914 C550.669352,95.7641602 547.342936,98.3886719 543.151855,100.219727 C538.960775,102.050781 534.077962,102.966309 528.503418,102.966309 C523.213704,102.966309 518.463135,102.101644 514.251709,100.372314 C510.040283,98.642985 506.652832,96.0489909 504.089355,92.590332 C501.525879,89.1316732 500,85.3678385 499.511719,81.2988281 C499.023438,77.2298177 498.779297,70.1090495 498.779297,59.9365234 L498.779297,43.0297852 C498.779297,33.1013997 499.013265,26.0721842 499.481201,21.9421387 C499.949137,17.8120931 501.413981,14.0380859 503.875732,10.6201172 C506.337484,7.20214844 509.6639,4.57763672 513.85498,2.74658203 C518.046061,0.915527344 522.928874,0 528.503418,0 C533.793132,0 538.543701,0.864664714 542.755127,2.59399414 C546.966553,4.32332357 550.354004,6.91731771 552.91748,10.3759766 C555.480957,13.8346354 557.006836,17.5984701 557.495117,21.6674805 C557.983398,25.7364909 558.227539,32.8572591 558.227539,43.0297852 L558.227539,59.9365234 Z M532.531738,27.4658203 C532.531738,22.8678385 532.277425,19.9279785 531.768799,18.6462402 C531.260173,17.364502 530.212402,16.7236328 528.625488,16.7236328 C527.282715,16.7236328 526.25529,17.2424316 525.543213,18.2800293 C524.831136,19.317627 524.475098,22.3795573 524.475098,27.4658203 L524.475098,73.6083984 C524.475098,79.3457031 524.709066,82.8857422 525.177002,84.2285156 C525.644938,85.5712891 526.733398,86.2426758 528.442383,86.2426758 C530.192057,86.2426758 531.311035,85.4695638 531.799316,83.9233398 C532.287598,82.3771159 532.531738,78.6946615 532.531738,72.8759766 L532.531738,27.4658203 Z" id="Shape"></path>
        </g>
        <g id="Group" transform="translate(118.456849, 0.259988)" fill-rule="nonzero">
            <path d="M168.16981,384.759026 C223.904475,384.759026 269.085807,366.360359 269.085807,343.667027 C269.085807,334.095027 261.047141,325.287027 247.569808,318.301694 L247.805808,318.424361 L279.525807,300.245694 L281.160474,299.307028 C293.785807,292.072361 304.864473,294.772361 313.64714,303.073694 C314.033806,303.439028 314.41514,303.816361 314.792473,304.204361 C314.792473,304.203028 309.10314,289.081695 289.55914,289.812361 C273.347141,290.419028 247.833808,308.495027 239.603141,314.641694 C240.149808,314.864361 240.687141,315.088361 241.219141,315.316361 C222.839142,307.467027 196.907143,302.576361 168.16981,302.576361 C139.449811,302.576361 113.531145,307.461694 95.1538118,315.301694 C95.4298118,315.184361 95.7071451,315.068361 95.9858117,314.951027 C73.2618123,300.337694 59.3324793,291.684361 48.4618129,290.008361 C30.0671467,287.172361 23.6764802,298.717694 23.6764802,298.717694 C31.3831467,294.083028 40.4458131,293.552361 50.4871462,299.307028 L52.1231462,300.245694 L86.1271453,319.735027 C87.4551453,318.980361 88.8458119,318.245694 90.2924786,317.531027 C75.8991456,324.635027 67.2538125,333.74036 67.2538125,343.667027 C67.2538125,366.360359 112.435145,384.759026 168.16981,384.759026 L168.16981,384.759026 Z M247.551141,318.292361 C247.061808,318.039027 246.564475,317.787027 246.060475,317.539027 C246.564475,317.788361 247.061808,318.039027 247.551141,318.292361 Z M245.985808,317.501694 C245.493808,317.259027 244.996475,317.021694 244.492475,316.783027 C244.996475,317.020361 245.493808,317.259027 245.985808,317.501694 Z M244.463141,316.768361 C243.412475,316.275027 242.332475,315.792361 241.225808,315.319027 C242.332475,315.792361 243.411141,316.275027 244.463141,316.768361 Z M95.1124784,315.319027 C93.4484785,316.029694 91.8444785,316.765694 90.3071452,317.524361 C91.8444785,316.765694 93.4484785,316.029694 95.1124784,315.319027" id="path16" fill-opacity="0.5" fill="#000000" transform="translate(169.234477, 337.159514) scale(-1, 1) rotate(-180.000000) translate(-169.234477, -337.159514) "></path>
            <path d="M216.288475,354.921149 C251.388475,339.725149 287.200474,320.48515 317.35914,301.18115 C332.100473,291.754484 316.372473,264.047818 299.83114,252.331818 L303.225807,252.219818 C349.395139,250.702485 327.760473,131.065288 283.368474,156.507821 L201.224476,203.589153 C201.259142,203.911819 201.296476,204.237153 201.333809,204.563819 C172.17381,197.52782 148.983144,200.426486 131.696478,205.037153 C131.755144,204.550486 131.812478,204.067819 131.863144,203.589153 L49.7191462,156.507821 C5.32714735,131.065288 -16.3075188,250.702485 29.8618134,252.219818 L46.305813,252.761151 C29.9871467,264.709151 14.8031471,291.867817 29.3698134,301.18115 C57.2484794,319.027816 89.9591452,336.817149 122.472478,351.407816 C126.112478,359.526482 130.404478,366.973149 135.503144,373.277148 L170.044477,378.209148 L205.233809,373.550482 C209.348476,368.458482 213.019142,362.074482 216.288475,354.921149 L216.288475,354.921149 Z M275.309807,253.139818 L235.181808,287.658484 C237.996475,271.687818 239.449808,258.854485 239.924475,254.305151 L275.309807,253.139818 Z M101.003145,254.562485 C101.989812,262.238485 103.092478,271.541151 104.569812,281.657151 L71.9618123,253.606485 L101.003145,254.562485" id="path18" fill="#4BA2B9" transform="translate(166.543810, 265.583910) scale(-1, 1) rotate(-180.000000) translate(-166.543810, -265.583910) "></path>
            <path d="M122.685811,277.213337 C114.717811,273.613337 106.737811,269.821337 98.8218117,265.884004 C75.1018123,254.086671 52.0218128,241.021338 31.59248,227.944005 L31.5751467,227.944005 C26.8124801,224.898671 26.7751468,218.564005 29.3111467,211.644005 C30.9378134,207.201339 33.5951466,202.573339 36.8231466,198.288005 C40.0831465,193.962672 43.8831464,190.032006 47.765813,187.026672 C54.2244795,182.025339 60.707146,179.572006 64.3724792,182.725339 L105.621812,218.209338 L103.737812,205.742672 L73.5178123,179.746673 L66.9658125,179.534673 L65.0591459,179.473339 L64.5871459,179.457339 L64.1111459,179.441339 L54.1498128,179.118673 L53.3018128,179.093339 L52.8551462,179.078673 L52.4711462,179.065339 L45.0604797,178.825339 C44.2831464,179.360006 43.5098131,179.925339 42.7418131,180.520006 C38.2564799,183.992006 33.92048,188.462672 30.2538134,193.328006 C26.5551468,198.236005 23.4911469,203.596005 21.5804803,208.809339 C17.743147,219.282672 18.415147,229.264005 27.1524801,234.861338 L27.1471468,234.868005 C47.877813,248.138671 71.2258124,261.360004 95.1511451,273.25867 C101.592478,276.46267 108.081811,279.573337 114.577811,282.56667 C117.169811,280.625337 119.876478,278.836003 122.685811,277.213337" id="path20" fill="#101010" transform="translate(71.019466, 230.696005) scale(-1, 1) rotate(-180.000000) translate(-71.019466, -230.696005) "></path>
            <path d="M218.952475,288.297243 C229.835142,283.563909 240.771141,278.453243 251.576475,273.07991 C275.501807,261.17991 298.849807,247.957244 319.581806,234.687911 L319.576473,234.679911 C328.312473,229.083911 328.987139,219.103911 325.148473,208.629245 C323.237806,203.415911 320.173806,198.055912 316.476473,193.147912 C312.808473,188.281245 308.472473,183.811912 303.98714,180.339912 C294.517807,173.007912 284.22714,170.087912 277.009807,176.298579 L237.481808,210.302578 L235.597808,222.769244 L282.356474,182.545245 C286.02314,179.391912 292.504474,181.843912 298.96314,186.846578 C302.844473,189.851912 306.645806,193.782578 309.905806,198.107912 C313.13514,202.393245 315.79114,207.022578 317.41914,211.463911 C319.953806,218.383911 319.916473,224.718578 315.153806,227.763911 L315.136473,227.763911 C294.70714,240.841244 271.625807,253.906577 247.904475,265.705243 C235.965808,271.642576 223.881809,277.249243 211.912476,282.366576 C214.373809,284.213243 216.724475,286.193243 218.952475,288.297243" id="path22" fill="#101010" transform="translate(269.644274, 230.605957) scale(-1, 1) rotate(-180.000000) translate(-269.644274, -230.605957) "></path>
            <path d="M284.78314,230.473145 C262.409808,261.561145 306.67114,295.813144 321.992473,283.670477 C321.992473,283.670477 327.932473,246.903812 284.78314,230.473145" id="path24" fill="#101010" transform="translate(300.428362, 258.325908) scale(-1, 1) rotate(-180.000000) translate(-300.428362, -258.325908) "></path>
            <path d="M284.449807,230.321996 C276.959141,240.729996 276.841807,251.492663 280.60314,260.788662 C282.789807,266.192662 286.289807,271.099329 290.41114,275.151329 C294.532473,279.200662 299.276473,282.399328 303.956473,284.388662 C310.924473,287.347328 317.765806,287.632662 322.248473,284.079328 L322.376473,283.979328 L322.399139,283.817995 C322.415139,283.711328 328.391139,246.723329 284.929807,230.17533 L284.63514,230.06333 L284.449807,230.321996 Z M281.368474,260.480662 C277.735141,251.501996 277.817807,241.121996 284.932474,231.061996 C325.864473,246.819329 321.967139,280.931328 321.608473,283.533995 C317.381806,286.776662 310.91114,286.447328 304.27914,283.631328 C299.689807,281.681995 295.033807,278.541995 290.98714,274.564662 C286.94314,270.589995 283.509807,265.776662 281.368474,260.480662" id="path26" fill="#101010" transform="translate(300.429503, 258.369667) scale(-1, 1) rotate(-180.000000) translate(-300.429503, -258.369667) "></path>
            <path d="M286.628474,256.485893 C287.393807,255.645893 287.332474,254.344559 286.49114,253.580559 C285.652474,252.815226 284.35114,252.876559 283.585807,253.716559 C283.565807,253.737893 276.752474,261.252559 272.289807,262.853893 C271.221807,263.235226 270.667141,264.411226 271.048474,265.477892 C271.432474,266.545892 272.607141,267.100559 273.673807,266.717892 C279.124474,264.761892 286.60714,256.509893 286.628474,256.485893" id="path28" fill="#101010" transform="translate(279.046360, 259.941614) scale(-1, 1) rotate(-180.000000) translate(-279.046360, -259.941614) "></path>
            <path d="M292.841807,243.954443 C293.605807,243.114443 293.544473,241.811776 292.705807,241.047776 C291.865807,240.282443 290.56314,240.343776 289.79914,241.18511 C289.77914,241.20511 282.965807,248.719776 278.503141,250.319776 C277.435141,250.702443 276.880474,251.877109 277.263141,252.945109 C277.645807,254.013109 278.820474,254.567776 279.88714,254.186443 C285.337807,252.230443 292.820473,243.975776 292.841807,243.954443" id="path30" fill="#101010" transform="translate(285.259587, 247.409224) scale(-1, 1) rotate(-180.000000) translate(-285.259587, -247.409224) "></path>
            <path d="M301.81114,233.54841 C302.576473,232.70841 302.513807,231.407077 301.673807,230.641743 C300.833807,229.87641 299.532473,229.937743 298.76714,230.779077 C298.748473,230.80041 291.933807,238.315077 287.47114,239.915077 C286.404474,240.29641 285.849807,241.47241 286.23114,242.54041 C286.613807,243.607076 287.789807,244.161743 288.856474,243.779076 C294.30714,241.82441 301.789807,233.571077 301.81114,233.54841" id="path32" fill="#101010" transform="translate(294.228786, 237.002874) scale(-1, 1) rotate(-180.000000) translate(-294.228786, -237.002874) "></path>
            <path d="M61.9444793,230.473145 C84.3191454,261.561145 40.0578131,295.813144 24.7364802,283.670477 C24.7364802,283.670477 18.795147,246.903812 61.9444793,230.473145" id="path34" fill="#101010" transform="translate(46.300164, 258.325908) scale(-1, 1) rotate(-180.000000) translate(-46.300164, -258.325908) "></path>
            <path d="M61.7964793,231.061494 C68.9111458,241.121494 68.9924791,251.502827 65.3604792,260.481494 C63.2164792,265.77616 59.7844793,270.589493 55.7391461,274.56416 C51.6938129,278.542827 47.037813,281.681493 42.4498131,283.630826 C35.8191466,286.44816 29.3471467,286.77616 25.1204802,283.533493 C24.7618135,280.930827 20.8644803,246.820161 61.7964793,231.061494 L61.7964793,231.061494 Z M66.1244792,260.789494 C69.8871457,251.492161 69.7698124,240.729494 62.2791459,230.321494 L62.0938126,230.062828 L61.7991459,230.174828 C18.3364804,246.722827 24.3138135,283.710826 24.3298135,283.817493 L24.3524802,283.978826 L24.4804802,284.078826 C28.9618134,287.63216 35.8044799,287.34816 42.7711464,284.38816 C47.4511463,282.40016 52.1964795,279.201493 56.3164794,275.15216 C60.4378126,271.10016 63.9378125,266.19216 66.1244792,260.789494" id="path36" fill="#101010" transform="translate(46.299239, 258.369415) scale(-1, 1) rotate(-180.000000) translate(-46.299239, -258.369415) "></path>
            <path d="M63.1431459,253.716559 C62.3778126,252.876559 61.0764793,252.815226 60.2378126,253.580559 C59.3964793,254.344559 59.335146,255.645893 60.099146,256.485893 C60.1218126,256.509893 67.6031458,264.761892 73.0538123,266.717892 C74.1218123,267.100559 75.2964789,266.545892 75.6791456,265.477892 C76.0618122,264.411226 75.5071456,263.235226 74.4391456,262.853893 C69.9764791,261.252559 63.1618126,253.737893 63.1431459,253.716559" id="path38" fill="#101010" transform="translate(67.682170, 259.941614) scale(-1, 1) rotate(-180.000000) translate(-67.682170, -259.941614) "></path>
            <path d="M56.9298127,241.184112 C56.1644794,240.344112 54.8631461,240.282779 54.0231461,241.046779 C53.1818128,241.812112 53.1218128,243.113446 53.8858128,243.953446 C53.9071461,243.976112 61.3898126,252.230779 66.8404791,254.186779 C67.9071458,254.568112 69.0831458,254.013445 69.4658124,252.945445 C69.8484791,251.877445 69.2938124,250.702779 68.2258124,250.320112 C63.7631459,248.720112 56.9484794,241.205446 56.9298127,241.184112" id="path40" fill="#101010" transform="translate(61.468534, 247.409391) scale(-1, 1) rotate(-180.000000) translate(-61.468534, -247.409391) "></path>
            <path d="M47.9604796,230.779077 C47.1964796,229.937743 45.8951463,229.87641 45.053813,230.641743 C44.213813,231.407077 44.153813,232.70841 44.917813,233.54841 C44.9391464,233.571077 52.4218128,241.82441 57.871146,243.779076 C58.939146,244.161743 60.115146,243.607076 60.4964793,242.54041 C60.879146,241.47241 60.323146,240.29641 59.2564793,239.915077 C54.7938128,238.315077 47.9804796,230.80041 47.9604796,230.779077" id="path42" fill="#101010" transform="translate(52.499727, 237.002874) scale(-1, 1) rotate(-180.000000) translate(-52.499727, -237.002874) "></path>
            <path d="M179.96981,261.120003 C182.59381,264.153336 197.185809,273.417336 210.301809,275.549336 C210.301809,275.549336 218.335142,261.57067 222.433809,248.945337 C220.303142,246.569337 201.611142,235.708004 194.561809,233.412004 C187.799143,240.80667 181.479143,253.564003 179.96981,261.120003" id="path44" fill="#AFD5DF" transform="translate(201.201809, 254.480670) scale(-1, 1) rotate(-180.000000) translate(-201.201809, -254.480670) "></path>
            <path d="M176.95381,263.940003 C178.752476,266.020003 185.020476,270.442669 192.616476,274.056003 C197.853809,276.546669 203.856476,278.753336 209.660476,279.697336 L212.379142,280.138669 L213.755142,277.744003 C213.777809,277.702669 222.019142,263.36667 226.231142,250.392003 L226.939142,248.213337 L225.403142,246.501337 C223.983142,244.917337 217.589809,240.82667 210.923142,237.11067 C205.284476,233.969337 199.291142,230.96267 195.796476,229.824004 L193.363143,229.033337 L191.624476,230.933337 C188.112476,234.773337 184.756476,239.87067 182.05781,244.992003 C179.120476,250.572003 176.899143,256.285336 176.047143,260.549336 L175.667143,262.452003 L176.95381,263.940003 Z M196.023143,266.837336 C190.893809,264.397336 186.655143,261.75867 184.40981,260.000003 C185.343143,256.720003 187.015143,252.709336 189.121809,248.71067 C191.077809,244.997337 193.372476,241.349337 195.757809,238.356003 C198.837809,239.676003 203.011142,241.83067 207.047142,244.081337 C211.405809,246.509337 215.492475,248.957337 217.755142,250.496003 C214.764475,258.805336 210.424476,267.218669 208.229809,271.277336 C204.088476,270.300003 199.851142,268.657336 196.023143,266.837336" id="path46" fill="#101010" transform="translate(201.303142, 254.586003) scale(-1, 1) rotate(-180.000000) translate(-201.303142, -254.586003) "></path>
            <path d="M178.76581,256.5173 C177.787143,256.007967 176.580476,256.3893 176.071143,257.3693 C175.56181,258.347967 175.943143,259.554633 176.923143,260.063967 L191.307143,267.5373 C192.285809,268.046633 193.492476,267.6653 194.001809,266.686633 C194.511143,265.706633 194.129809,264.499967 193.151143,263.990633 L178.76581,256.5173" id="path48" fill="#101010" transform="translate(185.036494, 262.027318) scale(-1, 1) rotate(-180.000000) translate(-185.036494, -262.027318) "></path>
            <path d="M182.743143,246.141385 C182.195143,247.094718 182.524476,248.312051 183.47781,248.860051 C184.431143,249.408051 185.648476,249.078718 186.196476,248.125385 L193.015143,236.304052 C193.561809,235.349385 193.233809,234.132052 192.280476,233.585385 C191.327143,233.037385 190.108476,233.366718 189.561809,234.318718 L182.743143,246.141385" id="path50" fill="#101010" transform="translate(187.878847, 241.222695) scale(-1, 1) rotate(-180.000000) translate(-187.878847, -241.222695) "></path>
            <path d="M190.367143,242.453291 C189.820476,243.407957 190.148476,244.625291 191.100476,245.171957 C192.053809,245.719957 193.272476,245.390624 193.820476,244.438624 L200.639142,232.615958 C201.185809,231.662624 200.857809,230.443958 199.904476,229.897291 C198.951143,229.349291 197.733809,229.678624 197.185809,230.631958 L190.367143,242.453291" id="path52" fill="#101010" transform="translate(195.503119, 237.534648) scale(-1, 1) rotate(-180.000000) translate(-195.503119, -237.534648) "></path>
            <path d="M213.107142,244.026922 C212.128476,243.517589 210.921809,243.898922 210.412476,244.878922 C209.903142,245.857588 210.284476,247.064255 211.264476,247.573588 L224.052475,254.218922 C225.032475,254.728255 226.239142,254.345588 226.748475,253.366922 C227.257808,252.388255 226.876475,251.180255 225.896475,250.672255 L213.107142,244.026922" id="path54" fill="#101010" transform="translate(218.580475, 249.122796) scale(-1, 1) rotate(-180.000000) translate(-218.580475, -249.122796) "></path>
            <path d="M195.820476,277.870077 C195.271143,278.82341 195.600476,280.042077 196.553809,280.588743 C197.507143,281.136743 198.724476,280.80741 199.272476,279.854077 L206.091142,268.032744 C206.639142,267.07941 206.309809,265.862077 205.356476,265.314077 C204.403142,264.76741 203.185809,265.09541 202.637809,266.048744 L195.820476,277.870077" id="path56" fill="#101010" transform="translate(200.955345, 272.951706) scale(-1, 1) rotate(-180.000000) translate(-200.955345, -272.951706) "></path>
            <path d="M203.485809,274.261335 C202.937809,275.214668 203.265809,276.432002 204.219142,276.980002 C205.173809,277.526668 206.391142,277.198668 206.937809,276.245335 L213.757809,264.424002 C214.305809,263.470669 213.976475,262.252002 213.023142,261.705335 C212.069809,261.158669 210.852476,261.486669 210.304476,262.440002 L203.485809,274.261335" id="path58" fill="#101010" transform="translate(208.621641, 269.342669) scale(-1, 1) rotate(-180.000000) translate(-208.621641, -269.342669) "></path>
            <path d="M211.152476,270.652595 C210.604476,271.605928 210.932476,272.823262 211.885809,273.371262 C212.839142,273.917928 214.057809,273.589928 214.604475,272.636595 L221.424475,260.815262 C221.971142,259.860595 221.643142,258.643262 220.689809,258.096595 C219.735142,257.548595 218.519142,257.877929 217.971142,258.831262 L211.152476,270.652595" id="path60" fill="#101010" transform="translate(216.288011, 265.733632) scale(-1, 1) rotate(-180.000000) translate(-216.288011, -265.733632) "></path>
            <path d="M209.008476,236.156208 C208.029809,235.648208 206.821809,236.030874 206.313809,237.009541 C205.804476,237.988207 206.185809,239.196207 207.164476,239.705541 L219.953809,246.349541 C220.932475,246.858874 222.140475,246.477541 222.651142,245.497541 C223.157809,244.518874 222.776475,243.312207 221.797809,242.802874 L209.008476,236.156208" id="path62" fill="#101010" transform="translate(214.481599, 241.253439) scale(-1, 1) rotate(-180.000000) translate(-214.481599, -241.253439) "></path>
            <path d="M133.908477,323.634599 L51.7644795,276.5546 C39.2004798,269.353267 28.1764801,272.0426 19.435147,280.3026 C11.6711472,287.639933 5.92048067,299.563933 2.77514741,312.582599 C-0.331519178,325.441266 -0.942185829,339.502599 1.53248078,351.307932 C4.89648069,367.347931 13.8284805,379.425264 29.7324801,379.947931 L105.692478,382.405264 C105.407145,380.146598 105.135145,377.995931 104.869812,375.979931 L104.627145,374.149265 L29.9898134,371.735931 C18.6884803,371.363931 12.1858138,362.038598 9.58448057,349.631932 C7.3551473,339.002599 7.92848062,326.247932 10.7631472,314.514599 C13.5591471,302.941266 18.5084804,292.4946 25.0711469,286.293267 C31.1698134,280.5306 38.6444798,278.655934 47.4431463,283.6986 L127.217811,329.421266 L127.387144,329.873266 L127.388478,329.873266 L127.389811,329.874599 C130.084478,329.071932 132.940477,328.298599 135.959144,327.589266 C136.112477,325.937266 135.263144,324.415932 133.905811,323.638599 L133.908477,323.634599" id="path64" fill="#101010" transform="translate(67.990205, 327.394634) scale(-1, 1) rotate(-180.000000) translate(-67.990205, -327.394634) "></path>
            <path d="M27.3698135,378.209191 C27.3698135,378.209191 76.8084789,363.175858 51.3471462,283.633193 L49.7191462,282.69986 C6.14981399,257.727727 -15.4995188,372.518524 27.3698135,378.209191" id="path66" fill="#101010" transform="translate(31.372416, 328.679930) scale(-1, 1) rotate(-180.000000) translate(-31.372416, -328.679930) "></path>
            <path d="M28.6418134,382.208785 C28.7938134,382.159452 81.9858121,365.958119 55.2591461,282.464787 C54.9324794,281.447454 54.2471461,280.646121 53.3871461,280.152787 L53.3911461,280.146121 L51.7644795,279.212788 C39.2004798,272.011454 28.1764801,274.700788 19.4364803,282.959454 C12.4124805,289.596787 7.0431473,299.952787 3.75781405,311.468787 C0.529814134,322.787453 -0.728852501,335.355453 0.413814137,346.646119 C2.27648076,365.042119 10.4858139,380.200785 26.8391468,382.371452 C27.4644801,382.451452 28.0778134,382.387452 28.6404801,382.204785 L28.6418134,382.208785 Z M47.9044796,286.494121 C69.1138124,354.664786 33.1058133,371.707452 26.9698135,374.072785 C15.8004804,372.010119 10.0471472,360.190119 8.59514727,345.840786 C7.55648063,335.587453 8.7164806,324.11012 11.6804805,313.72212 C14.5871471,303.532787 19.1844803,294.51412 25.0711469,288.950121 C31.1698134,283.187454 38.8751465,281.319454 47.6751463,286.363454 L47.9044796,286.494121" id="path68" fill="#101010" transform="translate(31.384330, 328.723728) scale(-1, 1) rotate(-180.000000) translate(-31.384330, -328.723728) "></path>
            <path d="M70.9271457,321.216063 C72.0511457,321.382729 73.0978123,320.604063 73.2618123,319.478729 C73.4271456,318.353396 72.648479,317.308063 71.5231457,317.144063 C71.492479,317.13873 60.7418126,315.49873 55.5298128,315.112063 C54.3951461,315.032063 53.4111461,315.885396 53.3311461,317.020063 C53.2511461,318.154729 54.1044795,319.138729 55.2391461,319.217396 C60.2404793,319.590729 70.896479,321.213396 70.9271457,321.216063" id="path70" fill="#101010" transform="translate(63.304950, 318.172699) scale(-1, 1) rotate(-180.000000) translate(-63.304950, -318.172699) "></path>
            <path d="M72.0978123,336.091777 C73.1951457,336.371777 74.3138123,335.707777 74.5938123,334.610444 C74.8738123,333.51311 74.2098123,332.394444 73.1111457,332.114444 C73.080479,332.106444 62.4378126,329.40111 57.3818127,328.52111 C56.2618127,328.331777 55.1978128,329.083777 55.0058128,330.20511 C54.8151461,331.32511 55.5684794,332.38911 56.6884794,332.579777 C61.7258126,333.455777 72.068479,336.083777 72.0978123,336.091777" id="path72" fill="#101010" transform="translate(64.817088, 332.323890) scale(-1, 1) rotate(-180.000000) translate(-64.817088, -332.323890) "></path>
            <path d="M70.9271457,351.919184 C71.9898123,352.319184 73.176479,351.783184 73.576479,350.719184 C73.976479,349.656518 73.4391456,348.469851 72.376479,348.069851 C72.348479,348.059184 62.1578126,344.232518 57.1404794,342.779184 C56.0511461,342.461851 54.9111461,343.089851 54.5964794,344.179184 C54.2804795,345.268518 54.9071461,346.407184 55.9964794,346.724518 C60.8178126,348.120518 70.8991457,351.908518 70.9271457,351.919184" id="path74" fill="#101010" transform="translate(64.111715, 347.374259) scale(-1, 1) rotate(-180.000000) translate(-64.111715, -347.374259) "></path>
            <path d="M66.8991458,307.049224 C68.0284791,307.150557 69.0271458,306.318557 69.1284791,305.189224 C69.2311457,304.061224 68.3991458,303.061224 67.2698125,302.959891 C67.2378125,302.957224 56.4044794,301.913224 51.1871462,301.815891 C50.0538129,301.798558 49.1204796,302.702558 49.1018129,303.837224 C49.0844796,304.969224 49.9898129,305.905224 51.1231462,305.921224 C56.1484794,306.017224 66.8684791,307.046557 66.8991458,307.049224" id="path76" fill="#101010" transform="translate(59.119307, 304.436613) scale(-1, 1) rotate(-180.000000) translate(-59.119307, -304.436613) "></path>
            <path d="M59.9164793,293.791834 C61.051146,293.8505 62.0164793,292.977167 62.0751459,291.843834 C62.1324793,290.7105 61.2604793,289.7425 60.127146,289.6865 C60.095146,289.685167 49.2498129,289.087834 44.0191464,289.2025 C42.8858131,289.225167 41.9858131,290.1625 42.0071464,291.297167 C42.0298131,292.429167 42.9671464,293.331834 44.1004797,293.307834 C49.1111463,293.197167 59.8858127,293.791834 59.9164793,293.791834" id="path78" fill="#101010" transform="translate(52.042297, 291.491251) scale(-1, 1) rotate(-180.000000) translate(-52.042297, -291.491251) "></path>
            <path d="M205.807142,329.683932 L285.413807,284.0586 C294.212473,279.0146 301.91914,280.883934 308.016473,286.6466 C314.57914,292.847933 319.529806,303.2946 322.324473,314.867933 C325.159139,326.601266 325.732473,339.355932 323.503139,349.985265 C320.901806,362.391931 314.39914,371.717265 303.097807,372.089265 L239.543141,374.181265 L240.100475,376.501264 C240.100475,376.501264 239.903141,378.651931 239.468475,382.405264 L303.35514,380.301264 C319.260473,379.778598 328.191139,367.701265 331.555139,351.661265 C334.031139,339.855932 333.420472,325.794599 330.313806,312.935933 C327.167139,299.917266 321.416473,287.993267 313.652473,280.655934 C304.912473,272.395934 293.88714,269.7066 281.32314,276.907934 L199.179143,323.987932 L199.181809,323.991932 C197.924476,324.711932 197.101809,326.070599 197.110987,327.581266 C199.951142,328.185266 202.848476,328.882599 205.807142,329.683932" id="path80" fill="#101010" transform="translate(265.098112, 327.571301) scale(-1, 1) rotate(-180.000000) translate(-265.098112, -327.571301) "></path>
            <path d="M305.717807,378.209191 C305.717807,378.209191 256.279141,363.175858 281.741807,283.633193 L283.368474,282.69986 C326.939139,257.727727 348.588472,372.518524 305.717807,378.209191" id="path82" fill="#101010" transform="translate(301.716010, 328.679930) scale(-1, 1) rotate(-180.000000) translate(-301.716010, -328.679930) "></path>
            <path d="M306.117806,374.072785 C299.98314,371.707452 263.975141,354.664786 285.184474,286.494121 L285.413807,286.363454 C294.212473,281.319454 301.917807,283.187454 308.01514,288.950121 C313.90314,294.51412 318.500473,303.532787 321.407139,313.72212 C324.371139,324.11012 325.532473,335.587453 324.492473,345.840786 C323.041806,360.190119 317.28714,372.010119 306.117806,374.072785 Z M277.828474,282.464787 C251.101808,365.958119 304.293807,382.159452 304.445807,382.208785 L304.44714,382.204785 C305.009807,382.387452 305.62314,382.451452 306.249806,382.371452 C322.601806,380.200785 330.811139,365.042119 332.673806,346.646119 C333.817806,335.355453 332.557806,322.787453 329.329806,311.468787 C326.043139,299.952787 320.675139,289.596787 313.652473,282.959454 C304.912473,274.700788 293.88714,272.011454 281.32314,279.212788 L279.696474,280.146121 L279.701807,280.152787 C278.840474,280.646121 278.153807,281.447454 277.828474,282.464787" id="path84" fill="#101010" transform="translate(301.703569, 328.723728) scale(-1, 1) rotate(-180.000000) translate(-301.703569, -328.723728) "></path>
            <path d="M261.564474,317.144063 C260.439141,317.308063 259.660474,318.353396 259.824474,319.478729 C259.989808,320.604063 261.036474,321.382729 262.160474,321.216063 C262.191141,321.213396 272.847141,319.590729 277.848474,319.217396 C278.983141,319.138729 279.836474,318.154729 279.756474,317.020063 C279.676474,315.885396 278.692474,315.032063 277.557807,315.112063 C272.345807,315.49873 261.596474,317.13873 261.564474,317.144063" id="path86" fill="#101010" transform="translate(269.782168, 318.172699) scale(-1, 1) rotate(-180.000000) translate(-269.782168, -318.172699) "></path>
            <path d="M259.977808,332.114444 C258.877808,332.394444 258.215141,333.51311 258.495141,334.610444 C258.775141,335.707777 259.892474,336.371777 260.989808,336.091777 C261.020474,336.083777 271.363141,333.455777 276.399141,332.579777 C277.519141,332.38911 278.272474,331.32511 278.081807,330.20511 C277.889807,329.083777 276.825807,328.331777 275.707141,328.52111 C270.651141,329.40111 260.007141,332.106444 259.977808,332.114444" id="path88" fill="#101010" transform="translate(268.271158, 332.323890) scale(-1, 1) rotate(-180.000000) translate(-268.271158, -332.323890) "></path>
            <path d="M260.711141,348.069851 C259.648474,348.469851 259.111141,349.656518 259.511141,350.719184 C259.911141,351.783184 261.099141,352.319184 262.160474,351.919184 C262.189808,351.908518 272.271141,348.120518 277.091141,346.724518 C278.180474,346.407184 278.808474,345.268518 278.491141,344.179184 C278.176474,343.089851 277.037807,342.461851 275.947141,342.779184 C270.929807,344.232518 260.740474,348.059184 260.711141,348.069851" id="path90" fill="#101010" transform="translate(268.976144, 347.374259) scale(-1, 1) rotate(-180.000000) translate(-268.976144, -347.374259) "></path>
            <path d="M265.819141,302.959891 C264.689808,303.061224 263.857808,304.061224 263.959141,305.189224 C264.060474,306.318557 265.059141,307.150557 266.188474,307.049224 C266.219141,307.046557 276.940474,306.017224 281.964474,305.921224 C283.09914,305.905224 284.00314,304.969224 283.985807,303.837224 C283.968474,302.702558 283.033807,301.798558 281.900474,301.815891 C276.683141,301.914558 265.849808,302.957224 265.819141,302.959891" id="path92" fill="#101010" transform="translate(273.968419, 304.436613) scale(-1, 1) rotate(-180.000000) translate(-273.968419, -304.436613) "></path>
            <path d="M272.961807,289.6865 C271.827141,289.7425 270.955141,290.7105 271.012474,291.843834 C271.071141,292.977167 272.037807,293.8505 273.171141,293.791834 C273.201807,293.791834 283.976474,293.197167 288.98714,293.307834 C290.120474,293.331834 291.057807,292.429167 291.080474,291.297167 C291.101807,290.1625 290.201807,289.225167 289.068474,289.2025 C283.837807,289.087834 272.992474,289.685167 272.961807,289.6865" id="path94" fill="#101010" transform="translate(281.045323, 291.491251) scale(-1, 1) rotate(-180.000000) translate(-281.045323, -291.491251) "></path>
            <path d="M205.235142,327.083827 C172.564476,318.559827 147.007144,322.197161 128.479144,327.442494 L131.863144,329.382494 L131.787144,330.067827 L131.777811,330.143827 L131.768478,330.22116 L131.765811,330.24916 L131.760478,330.29716 L131.751144,330.374494 L131.677811,330.987827 L131.676478,330.990494 L131.667144,331.066494 L131.660478,331.122494 L131.649811,331.20516 L131.648478,331.22116 L131.637811,331.298494 L131.567144,331.84116 L131.556478,331.919827 L131.535144,332.074494 L131.524478,332.15316 L131.513811,332.230494 L131.503144,332.30916 L131.492478,332.387827 L131.481811,332.46516 L131.471144,332.543827 L131.459144,332.62116 L131.448478,332.699827 L131.403144,333.01316 L131.391144,333.091827 L131.380478,333.16916 L131.368478,333.247827 L131.357811,333.327827 L131.345811,333.40516 L131.332478,333.48516 L131.321811,333.562494 L131.309811,333.642494 L131.273811,333.878494 L131.260478,333.95716 L131.248478,334.03716 L131.236478,334.114494 L131.223144,334.194494 L131.211144,334.274494 L131.199144,334.351827 L132.179144,334.966494 C149.360477,330.331827 172.59781,327.382494 201.955142,334.76516 C201.655142,332.934494 201.412476,331.134494 201.224476,329.382494 L205.235142,327.083827" id="path96" fill="#101010" transform="translate(166.857143, 328.480581) scale(-1, 1) rotate(-180.000000) translate(-166.857143, -328.480581) "></path>
            <path d="M238.903142,239.932004 C242.545808,220.296005 244.343141,204.317339 244.784475,199.966672 L236.495142,200.238672 C235.504475,209.634672 230.856475,248.170671 220.688475,281.132003 C227.447142,275.241337 237.884475,248.456004 238.903142,239.932004" id="path98" fill="#101010" transform="translate(232.736475, 240.549338) scale(-1, 1) rotate(-180.000000) translate(-232.736475, -240.549338) "></path>
            <path d="M119.316478,277.029335 C111.719145,252.546669 108.296478,225.333336 105.848478,205.853337 C105.653812,204.308003 105.469812,202.844003 105.093812,199.96667 L105.077812,199.97467 L105.063145,199.981337 L104.815145,200.117337 L104.799145,200.125337 L104.784478,200.133337 L104.767145,200.14267 C104.552478,200.257337 104.333812,200.37067 104.115145,200.481337 L104.104478,200.488003 L104.093812,200.493337 L96.8378117,200.25467 L97.6684784,206.852003 C98.5178117,213.617336 99.483145,221.29067 100.696478,229.46667 C103.199145,241.256002 111.488478,268.696002 119.316478,277.029335" id="path100" fill="#101010" transform="translate(108.077145, 238.498003) scale(-1, 1) rotate(-180.000000) translate(-108.077145, -238.498003) "></path>
            <path d="M106.689811,329.757334 C110.235145,323.121334 123.059144,307.648001 135.699144,305.168001 L132.504478,298.308001 L125.515144,301.473334 C125.515144,301.473334 105.236478,314.850667 106.689811,329.757334" id="path102" fill="#101010" transform="translate(121.157204, 314.032668) scale(-1, 1) rotate(-180.000000) translate(-121.157204, -314.032668) "></path>
            <path d="M226.473808,331.673335 C222.387142,324.024002 207.604476,306.186669 193.036476,303.33067 L196.517809,295.853336 L204.773809,299.069336 C204.773809,299.069336 228.149808,314.490669 226.473808,331.673335" id="path104" fill="#101010" transform="translate(209.798143, 313.763336) scale(-1, 1) rotate(-180.000000) translate(-209.798143, -313.763336) "></path>
            <path d="M101.597812,363.644 L73.0458123,359.124 C73.1538123,358.921334 73.2271456,358.698667 73.2618123,358.461334 C73.4271456,357.336001 72.648479,356.290667 71.5231457,356.126667 C71.5031457,356.122667 66.7098125,355.392001 61.9751459,354.792001 C62.4218126,351.588001 62.6924792,348.168001 62.7551459,344.522667 C67.3658125,345.569334 72.076479,346.766667 72.0978123,346.772001 C73.1951457,347.052001 74.3138123,346.388001 74.5938123,345.290667 C74.8738123,344.193334 74.2098123,343.074668 73.1111457,342.794668 C73.0898123,342.789334 67.6738125,341.413334 62.7351459,340.304001 C62.6431459,336.809334 62.3644793,333.118668 61.8764793,329.224001 C66.3338125,330.773335 70.9071457,332.490668 70.9271457,332.498668 C71.9898123,332.898668 73.176479,332.362668 73.576479,331.298668 C73.976479,330.236001 73.4391456,329.049335 72.376479,328.649335 C72.3538123,328.641335 66.2924792,326.365335 61.2178126,324.656001 C60.4898126,320.162668 59.4898127,315.413335 58.183146,310.393335 L125.316478,348.869334 C124.716478,349.280001 122.821811,350.612001 120.456478,352.632001 C117.052478,355.537334 112.673811,359.868 109.761811,364.934667 L101.597812,363.644" id="path106" fill="#36778A" transform="translate(91.749812, 337.664001) scale(-1, 1) rotate(-180.000000) translate(-91.749812, -337.664001) "></path>
            <path d="M259.808474,360.628 L231.016475,363.949334 L221.169809,365.084 C217.889809,360.341334 213.707142,356.312001 210.387142,353.500001 C209.331142,352.604001 208.363142,351.833334 207.539142,351.198667 L274.944474,312.566668 C273.616474,317.641335 272.603141,322.441335 271.871141,326.978668 C266.795141,328.688001 260.733808,330.964001 260.711141,330.972001 C259.648474,331.372001 259.111141,332.558668 259.511141,333.621334 C259.911141,334.685334 261.099141,335.221334 262.160474,334.821334 C262.180474,334.813334 266.753807,333.096001 271.211141,331.546668 C270.723141,335.441334 270.444474,339.132001 270.353807,342.628001 C265.413808,343.736001 259.997808,345.112001 259.977808,345.117334 C258.877808,345.397334 258.215141,346.516001 258.495141,347.613334 C258.775141,348.710667 259.892474,349.374667 260.989808,349.094667 C261.011141,349.089334 265.721808,347.892001 270.332474,346.845334 C270.395141,350.490667 270.665807,353.910667 271.112474,357.114667 C266.376474,357.716001 261.585808,358.445334 261.564474,358.449334 C260.491141,358.605334 259.735141,359.564 259.808474,360.628" id="path108" fill="#36778A" transform="translate(241.241808, 338.825334) scale(-1, 1) rotate(-180.000000) translate(-241.241808, -338.825334) "></path>
            <path d="M202.229809,301.933732 C213.393809,308.297731 223.253809,320.651064 226.473808,326.677731 C199.440476,296.197732 133.924477,295.823065 106.689811,324.223064 C109.795145,318.411064 120.019144,305.817731 131.001811,301.116398 C131.867144,300.744398 132.736477,300.424398 133.605811,300.159065 C134.293811,299.980398 134.991144,299.805732 135.699144,299.633732 C150.860477,295.949732 170.327143,293.871065 194.137809,298.577732 C196.861809,299.249732 199.583142,300.423065 202.229809,301.933732" id="path110" fill="#36778A" transform="translate(166.581809, 311.265533) scale(-1, 1) rotate(-180.000000) translate(-166.581809, -311.265533) "></path>
            <path d="M59.6298127,190.933339 C83.8458121,210.281339 120.105811,235.988005 120.105811,235.988005 C112.996478,232.740005 105.884478,229.342671 98.8218117,225.830671 C76.9431456,214.949338 55.6071461,202.988005 36.3951466,190.933339 C38.4644799,190.565339 40.6124798,189.905339 42.7711464,188.988006 C45.005813,188.038672 47.2551463,186.813339 49.4444796,185.350672 C51.9858128,187.640006 55.1778128,190.146672 57.871146,191.112006 C58.4778127,191.329339 59.1204793,191.245339 59.6298127,190.933339" id="path112" fill="#FFFFFF" transform="translate(78.250479, 210.669339) scale(-1, 1) rotate(-180.000000) translate(-78.250479, -210.669339) "></path>
            <path d="M287.09914,188.045338 C262.883141,207.393338 220.209809,235.988004 220.209809,235.988004 C227.320475,232.740004 240.661808,226.909337 247.907141,222.942671 C269.785807,212.061337 291.120474,200.100004 310.332473,188.045338 C308.264473,187.677338 306.116473,187.017338 303.957807,186.100005 C301.721807,185.150671 299.473807,183.925338 297.28314,182.462672 C294.74314,184.752005 291.55114,187.258671 288.857807,188.224005 C288.25114,188.441338 287.608474,188.357338 287.09914,188.045338" id="path114" fill="#FFFFFF" transform="translate(265.271141, 209.225338) scale(-1, 1) rotate(-180.000000) translate(-265.271141, -209.225338) "></path>
            <path d="M236.495142,290.11467 L234.377808,286.764003 L271.348474,280.860003 C271.735141,281.449337 272.416474,281.82267 273.171141,281.784003 C273.193807,281.784003 279.137807,281.457337 284.249807,281.333337 C284.64714,281.801337 285.044474,282.257337 285.445807,282.69867 C286.50714,283.868003 287.57914,284.94267 288.644474,285.92667 C288.976474,286.233337 289.30714,286.53067 289.636474,286.820003 C289.84314,287.001337 290.049807,287.17867 290.256474,287.35467 C290.44714,287.517337 290.63914,287.67867 290.829807,287.836003 C291.02314,287.99467 291.216474,288.152003 291.408474,288.305337 L282.857807,288.588003 L282.376474,288.604003 L281.900474,288.620003 L280.332474,288.67067 L273.723141,288.889337 L244.784475,289.84267 L239.543141,290.013337 L236.495142,290.11467" id="path116" fill="#FFFFFF" transform="translate(262.893141, 285.487337) scale(-1, 1) rotate(-180.000000) translate(-262.893141, -285.487337) "></path>
            <path d="M154.620477,307.647837 C154.704477,308.781171 155.692477,309.631837 156.82581,309.547837 C157.960477,309.463837 158.80981,308.475837 158.72581,307.342504 L150.947144,206.029173 C150.86181,204.89584 149.875144,204.046507 148.740477,204.129173 C147.607144,204.214507 146.756477,205.202507 146.840477,206.334507 L154.620477,307.647837" id="path118" fill="#101010" transform="translate(152.783147, 256.838588) scale(-1, 1) rotate(-180.000000) translate(-152.783147, -256.838588) "></path>
            <path d="M138.657811,290.433336 C137.524477,290.433336 136.604477,291.352002 136.604477,292.485335 C136.604477,293.620002 137.524477,294.538669 138.657811,294.538669 L161.552477,294.488002 C162.68581,294.488002 163.60581,293.569335 163.60581,292.434669 C163.60581,291.301335 162.68581,290.382669 161.552477,290.382669 L138.657811,290.433336" id="path120" fill="#101010" transform="translate(150.105143, 292.460669) scale(-1, 1) rotate(-180.000000) translate(-150.105143, -292.460669) "></path>
            <path d="M140.249811,273.457336 C139.116477,273.457336 138.197811,274.377336 138.197811,275.509336 C138.197811,276.644003 139.116477,277.562669 140.249811,277.562669 L163.144477,277.512003 C164.27781,277.512003 165.197811,276.593336 165.197811,275.460003 C165.197811,274.326669 164.27781,273.406669 163.144477,273.406669 L140.249811,273.457336" id="path122" fill="#101010" transform="translate(151.697811, 275.484669) scale(-1, 1) rotate(-180.000000) translate(-151.697811, -275.484669) "></path>
            <path d="M142.361811,250.569294 C141.371144,250.017294 140.120477,250.373294 139.568477,251.366627 C139.016477,252.357294 139.373811,253.607961 140.365811,254.158627 L160.38581,265.265294 C161.376477,265.817294 162.628477,265.461294 163.179143,264.469294 C163.731143,263.478627 163.37381,262.226627 162.38181,261.675961 L142.361811,250.569294" id="path124" fill="#101010" transform="translate(151.373810, 257.917316) scale(-1, 1) rotate(-180.000000) translate(-151.373810, -257.917316) "></path>
            <path d="M165.29381,256.775315 C166.36181,256.391315 166.916477,255.216649 166.53381,254.149982 C166.152477,253.081982 164.976477,252.527316 163.908477,252.908649 L142.375144,260.685982 C141.307144,261.067315 140.752477,262.243315 141.135144,263.311315 C141.516477,264.379315 142.692477,264.933982 143.760477,264.551315 L165.29381,256.775315" id="path126" fill="#101010" transform="translate(153.834477, 258.730326) scale(-1, 1) rotate(-180.000000) translate(-153.834477, -258.730326) "></path>
            <path d="M143.276477,239.95067 C142.143144,239.95067 141.223144,240.87067 141.223144,242.004003 C141.223144,243.13867 142.143144,244.056003 143.276477,244.056003 L166.171143,244.00667 C167.304477,244.00667 168.223144,243.088003 168.223144,241.953337 C168.223144,240.821337 167.304477,239.901337 166.171143,239.901337 L143.276477,239.95067" id="path128" fill="#101010" transform="translate(154.723144, 241.978670) scale(-1, 1) rotate(-180.000000) translate(-154.723144, -241.978670) "></path>
            <path d="M144.247144,222.076005 C143.113811,222.076005 142.193811,222.994672 142.193811,224.129338 C142.193811,225.261338 143.113811,226.181338 144.247144,226.181338 L167.14181,226.132005 C168.275143,226.132005 169.195143,225.212005 169.195143,224.077338 C169.195143,222.944005 168.275143,222.024005 167.14181,222.024005 L144.247144,222.076005" id="path130" fill="#101010" transform="translate(155.694477, 224.102672) scale(-1, 1) rotate(-180.000000) translate(-155.694477, -224.102672) "></path>
            <path d="M189.561809,249.969337 L188.544476,251.73067 C186.831143,250.68267 185.420476,249.71467 184.40981,248.924003 C184.40981,248.924003 186.520476,249.52667 189.673809,249.797337 C189.633809,249.852003 189.596476,249.909337 189.561809,249.969337 L189.561809,249.969337 Z M193.015143,251.95467 C193.389809,251.300003 193.353809,250.52267 192.985809,249.920003 C199.144476,249.852003 207.235142,248.03867 212.395142,240.205337 C213.237809,240.416003 214.152475,240.05467 214.604475,239.265337 L215.395142,237.89467 C216.308475,238.464003 217.105809,238.97867 217.755142,239.420003 C217.065809,241.33467 216.304475,243.25467 215.513809,245.128003 L213.107142,243.877337 C212.128476,243.368003 210.921809,243.749337 210.412476,244.729337 C209.903142,245.708003 210.284476,246.91467 211.264476,247.424003 L213.905809,248.797337 C213.203142,250.344003 212.499142,251.82667 211.823142,253.209336 L209.008476,251.745336 C208.029809,251.237336 206.821809,251.620003 206.313809,252.59867 C205.804476,253.577336 206.185809,254.785336 207.164476,255.29467 L210.032476,256.784003 C209.347142,258.116003 208.732476,259.272003 208.229809,260.201336 C205.357809,259.52267 202.437809,258.525336 199.641809,257.37067 L200.639142,255.641336 C201.185809,254.689336 200.857809,253.47067 199.904476,252.924003 C198.951143,252.376003 197.733809,252.705336 197.185809,253.65867 L195.984476,255.74267 C194.580476,255.07467 193.244476,254.392003 191.997809,253.716003 L193.015143,251.95467" id="path132" fill="#FFFFFF" transform="translate(201.082476, 249.048003) scale(-1, 1) rotate(-180.000000) translate(-201.082476, -249.048003) "></path>
            <path d="M147.82581,309.244391 L143.628477,309.253724 L138.657811,309.265724 C137.637811,309.265724 136.791144,310.011058 136.631144,310.985724 C136.429811,310.668391 136.312477,310.291058 136.312477,309.885724 C136.312477,309.323058 136.539144,308.812391 136.905811,308.441724 C137.279144,308.067058 137.795144,307.833724 138.365811,307.833724 L147.53381,307.812391 L146.547144,294.979058 C146.463144,293.847058 147.315144,292.857725 148.448477,292.773725 C149.58181,292.689725 150.56981,293.540391 150.65381,294.673725 L150.699144,295.269725 C150.323144,294.584391 149.571144,294.144391 148.740477,294.205725 C147.607144,294.291058 146.756477,295.279058 146.840477,296.411058 L147.82581,309.244391" id="path134" fill="#36778A" transform="translate(143.505810, 301.876863) scale(-1, 1) rotate(-180.000000) translate(-143.505810, -301.876863) "></path>
            <path d="M153.25781,278.064003 L153.148477,276.632004 L162.852477,276.609337 C163.98581,276.609337 164.904477,277.529337 164.904477,278.66267 C164.904477,278.776003 164.896477,278.88667 164.87781,278.99467 C164.51381,278.421337 163.87381,278.041337 163.144477,278.041337 L153.25781,278.064003" id="path136" fill="#36778A" transform="translate(159.026477, 277.802004) scale(-1, 1) rotate(-180.000000) translate(-159.026477, -277.802004) "></path>
            <path d="M149.12981,237.281337 L140.249811,237.300004 C139.229811,237.300004 138.381811,238.045337 138.224477,239.020003 C138.021811,238.70267 137.904477,238.325337 137.904477,237.920003 C137.904477,236.788004 138.823144,235.868004 139.957811,235.868004 L148.83781,235.849337 L147.959144,224.408004 L148.14181,224.408004 L149.12981,237.281337 Z M153.075144,288.662669 L144.247144,288.682669 C143.227144,288.682669 142.379144,289.426669 142.220477,290.404002 C142.017811,290.085336 141.901811,289.708002 141.901811,289.302669 C141.901811,288.169336 142.820477,287.249336 143.955144,287.249336 L152.78181,287.230669 L151.835144,274.893336 L152.016477,274.893336 L153.075144,288.662669 Z M157.203144,288.653336 L157.09381,287.221336 L166.84981,287.200002 C167.983143,287.200002 168.90181,288.120002 168.90181,289.252002 C168.90181,289.365336 168.892477,289.476002 168.876477,289.584002 C168.511143,289.012002 167.871143,288.630669 167.14181,288.630669 L157.203144,288.653336" id="path138" fill="#36778A" transform="translate(153.403143, 257.406003) scale(-1, 1) rotate(-180.000000) translate(-153.403143, -257.406003) "></path>
            <path d="M149.444477,260.797336 L150.41381,273.425336 L142.361811,268.957336 C141.371144,268.405336 140.120477,268.761336 139.568477,269.754669 C139.449811,269.968003 139.372477,270.193336 139.335144,270.421336 C138.947144,269.805336 138.897811,269.002669 139.275144,268.321336 C139.827144,267.329336 141.077811,266.974669 142.069811,267.525336 L150.12181,271.992003 L149.26181,260.797336 L149.444477,260.797336" id="path140" fill="#36778A" transform="translate(144.715247, 267.111336) scale(-1, 1) rotate(-180.000000) translate(-144.715247, -267.111336) "></path>
            <path d="M154.40181,264.607034 L163.616477,261.279034 C164.683143,260.8977 165.859143,261.452367 166.24181,262.520367 C166.363143,262.859034 166.38981,263.2097 166.335143,263.543034 C165.831143,262.7497 164.82981,262.3817 163.908477,262.711034 L154.515144,266.104367 L154.40181,264.607034" id="path142" fill="#36778A" transform="translate(160.382012, 263.631519) scale(-1, 1) rotate(-180.000000) translate(-160.382012, -263.631519) "></path>
            <path d="M162.38181,257.280002 L156.404477,253.962669 L157.791144,253.462669 L162.08981,255.848002 C162.868477,256.280002 163.255143,257.142669 163.119143,257.976002 C162.94181,257.694669 162.69381,257.452002 162.38181,257.280002" id="path144" fill="#36778A" transform="translate(159.775228, 255.719336) scale(-1, 1) rotate(-180.000000) translate(-159.775228, -255.719336) "></path>
            <path d="M146.508477,256.105336 L142.375144,257.597336 C141.648477,257.857336 141.157811,258.48667 141.041811,259.19867 C140.961811,259.073336 140.895144,258.936003 140.843144,258.79067 C140.460477,257.724003 141.015144,256.54667 142.081811,256.165336 L144.829811,255.173336 L146.508477,256.105336" id="path146" fill="#36778A" transform="translate(143.615279, 257.186003) scale(-1, 1) rotate(-180.000000) translate(-143.615279, -257.186003) "></path>
            <path d="M155.831144,244.55867 L155.720477,243.12667 L165.87781,243.104003 C167.012477,243.104003 167.932477,244.02267 167.932477,245.156003 C167.932477,245.269337 167.923143,245.380003 167.904477,245.488003 C167.540477,244.91467 166.900477,244.536003 166.171143,244.536003 L155.831144,244.55867" id="path148" fill="#36778A" transform="translate(161.826477, 244.296003) scale(-1, 1) rotate(-180.000000) translate(-161.826477, -244.296003) "></path>
            <path d="M151.703144,253.722671 L143.276477,253.740004 C142.256477,253.740004 141.408477,254.485337 141.249811,255.461337 C141.047144,255.142671 140.931144,254.766671 140.931144,254.361337 C140.931144,253.228004 141.849811,252.308004 142.984477,252.308004 L151.40981,252.289337 L150.647144,242.349338 L150.824477,242.285338 L151.703144,253.722671" id="path150" fill="#36778A" transform="translate(146.317144, 248.873338) scale(-1, 1) rotate(-180.000000) translate(-146.317144, -248.873338) "></path>
            <path d="M151.955144,295.040002 L151.844477,293.606669 L161.260477,293.586669 C162.39381,293.586669 163.31381,294.505335 163.31381,295.638669 C163.31381,295.752002 163.304477,295.862669 163.287143,295.970669 C162.92181,295.398669 162.28181,295.018669 161.552477,295.018669 L151.955144,295.040002" id="path152" fill="#36778A" transform="translate(157.579143, 294.778669) scale(-1, 1) rotate(-180.000000) translate(-157.579143, -294.778669) "></path>
            <path d="M220.160475,284.21067 C220.160475,284.21067 233.185808,227.494671 234.377808,199.652005 L236.495142,203.002672 C235.504475,212.398672 230.856475,250.934671 220.688475,283.896003 C220.688475,283.896003 220.448475,284.037337 220.160475,284.21067" id="path154" fill="#FFFFFF" transform="translate(228.327808, 241.931338) scale(-1, 1) rotate(-180.000000) translate(-228.327808, -241.931338) "></path>
            <path d="M104.627145,208.250672 L100.457812,208.116005 L73.5178123,207.245339 L66.9658125,207.033339 L65.0591459,206.972005 L64.5871459,206.956005 L64.1111459,206.940005 L54.1498128,206.617339 L53.3018128,206.592005 L52.8551462,206.577339 L52.4711462,206.564005 L45.0591464,206.324005 L41.6871464,206.214672 C43.8231464,204.502672 46.049813,202.438672 48.2204796,199.966672 L106.619145,205.265339 C110.969811,250.292004 119.316478,288.924003 119.316478,288.924003 C111.719145,264.441337 108.296478,237.228005 105.848478,217.748005 L105.692478,216.506672 L105.093812,211.861338 L104.627145,208.250672" id="path156" fill="#FFFFFF" transform="translate(80.501812, 244.445338) scale(-1, 1) rotate(-180.000000) translate(-80.501812, -244.445338) "></path>
            <path d="M95.6551451,237.420004 L75.1391456,224.572004 C75.3751456,224.354671 75.5644789,224.080004 75.6791456,223.756004 C76.0618122,222.689337 75.5071456,221.513337 74.4391456,221.132004 C72.4418123,220.416004 69.9738124,218.514671 67.8538125,216.630671 C68.6951458,212.744004 68.8191458,208.681338 68.0071458,204.558671 L70.3471457,204.634671 L100.725812,230.76667 C102.901812,240.94267 109.287145,262.453336 115.981811,273.602669 C115.979145,273.600003 115.977811,273.597336 115.976478,273.594669 C113.297811,269.226669 100.369812,247.98667 95.6551451,237.420004" id="path158" fill="#36778A" transform="translate(91.917812, 239.080670) scale(-1, 1) rotate(-180.000000) translate(-91.917812, -239.080670) "></path>
            <path d="M270.975141,230.776003 L243.067141,248.377336 C241.061808,256.428002 228.208475,274.032002 228.208475,274.032002 C233.372475,263.722669 238.225808,249.953336 238.903142,244.277336 C238.912475,244.229336 238.921808,244.181336 238.931142,244.134669 L276.896474,211.47467 L278.811141,211.412003 C277.901807,215.681336 278.004474,219.89067 278.875141,223.913336 C276.755141,225.796003 274.285807,227.697336 272.289807,228.414669 C271.309807,228.764003 270.761807,229.785336 270.975141,230.776003" id="path160" fill="#36778A" transform="translate(253.541808, 242.722003) scale(-1, 1) rotate(-180.000000) translate(-253.541808, -242.722003) "></path>
            <path d="M106.091145,160.406621 C106.403145,159.941288 106.736478,159.487955 107.088478,159.050621 C107.876478,158.070621 108.761811,157.170621 109.728478,156.367955 C110.688478,155.573288 112.119145,155.706621 112.915145,156.666621 C113.709811,157.626621 113.576478,159.057288 112.617811,159.851955 C111.883145,160.461288 111.209811,161.141288 110.611145,161.885288 C110.013811,162.627954 109.495145,163.433288 109.059145,164.279954 C108.621811,165.127954 108.265811,166.015954 108.007145,166.933288 C107.747145,167.851954 107.583145,168.795954 107.513811,169.746621 C107.421811,170.986621 106.329811,171.927954 105.089812,171.835954 C103.849812,171.743954 102.908478,170.651954 103.000478,169.413288 C103.093812,168.158621 103.313812,166.915954 103.655145,165.706621 C103.807145,165.166621 103.983145,164.633288 104.181812,164.109288 L74.0778123,150.518621 C71.3871457,152.554621 67.7484791,152.886621 64.7178125,151.323955 C60.3924793,149.091955 58.695146,143.777288 60.9258126,139.451955 C63.1564792,135.126622 68.4724791,133.429288 72.7978123,135.659955 C75.8218123,137.219955 77.6671455,140.385288 77.5684789,143.753288 L106.091145,160.406621 Z M66.0431458,142.090622 C65.2684792,143.590622 65.8564792,145.433288 67.3578125,146.206622 C68.8578124,146.979955 70.6991457,146.390622 71.472479,144.891955 C72.2458123,143.391955 71.6578124,141.550622 70.1578124,140.777288 C68.6591458,140.002622 66.8164791,140.590622 66.0431458,142.090622" id="path162" fill="#101010" transform="translate(86.688763, 153.259981) scale(-1, 1) rotate(-180.000000) translate(-86.688763, -153.259981) "></path>
            <path d="M108.477811,63.6242182 C108.948478,64.2028849 109.444478,64.7615515 109.963145,65.2975515 C111.125811,66.4975515 112.408478,67.5802181 113.787145,68.5242181 C115.155145,69.4602181 117.031145,69.1082181 117.967145,67.7402181 C118.903145,66.3722181 118.551145,64.4948849 117.183145,63.5588849 C116.136478,62.8442182 115.161811,62.0255516 114.280478,61.1135516 C113.397811,60.2042183 112.612478,59.2015516 111.931145,58.134885 C111.248478,57.066885 110.668478,55.9335517 110.213811,54.7495518 C109.759145,53.5668851 109.425811,52.3375518 109.216478,51.0868852 C108.943145,49.4575519 107.381811,48.3455519 105.752478,48.6188852 C104.123145,48.8935519 103.011145,50.4522185 103.284478,52.0828852 C103.560478,53.7308851 104.003145,55.3495517 104.603145,56.9082184 C104.872478,57.6055517 105.169812,58.2882183 105.496478,58.958885 L67.3151458,80.6322178 C63.5044792,78.2668845 58.647146,78.2735512 54.8271461,80.7135511 C49.3751462,84.1962177 47.777813,91.4415508 51.2604795,96.8922174 C54.7431461,102.344218 61.9871459,103.940218 67.4391458,100.457551 C71.252479,98.0215507 73.3058123,93.6068841 72.7618123,89.1602176 L108.477811,63.6242182 Z M57.711146,92.7722175 C56.5031461,90.8815509 57.0564794,88.3708843 58.947146,87.1642176 C60.8378126,85.9562176 63.3484792,86.509551 64.5551459,88.4002176 C65.7631458,90.2895509 65.2098125,92.8002175 63.3191459,94.0068841 C61.4284793,95.2148841 58.919146,94.6628841 57.711146,92.7722175" id="path164" fill="#101010" transform="translate(83.954125, 75.439446) scale(-1, 1) rotate(-180.000000) translate(-83.954125, -75.439446) "></path>
            <path d="M151.135144,193.593059 C193.316476,199.319725 232.152475,169.766393 237.877808,127.58506 C243.603141,85.4037278 214.051142,46.5677287 171.871143,40.8410622 C129.689811,35.115729 90.8524785,64.6677283 85.1271454,106.849061 C79.4018122,149.030393 108.953811,187.866392 151.135144,193.593059" id="path166" fill="#4BA2B9" transform="translate(161.502477, 117.217201) scale(-1, 1) rotate(-180.000000) translate(-161.502477, -117.217201) "></path>
            <path d="M150.580477,197.676777 C172.79781,200.69411 194.136476,194.41811 210.672476,181.834111 C227.209808,169.250111 238.947142,150.356778 241.963141,128.139445 C244.979141,105.922112 238.704475,84.5834459 226.119142,68.046113 C213.536475,51.5101134 194.643143,39.7727803 172.42581,36.7567804 C150.208477,33.7407805 128.869811,40.0167803 112.332478,52.60078 C95.7951451,65.1834464 84.057812,84.0781126 81.0431455,106.295446 C78.0258122,128.512779 84.301812,149.851445 96.8858117,166.387444 C109.469811,182.924777 128.363144,194.66211 150.580477,197.676777 Z M205.681809,175.274111 C190.823143,186.580777 171.65381,192.21811 151.68981,189.507444 C131.727144,186.79811 114.751145,176.252777 103.445812,161.395444 C92.1404785,146.538111 86.501812,127.366112 89.2124786,107.403446 C91.9218118,87.4407791 102.467145,70.4661129 117.324478,59.1607799 C132.181811,47.8554468 151.35381,42.2167803 171.316477,44.9261135 C191.279143,47.6367801 208.255142,58.1821132 219.559142,73.0381128 C230.865808,87.8954458 236.503142,107.067446 233.793808,127.030112 C231.084475,146.992778 220.539142,163.968778 205.681809,175.274111" id="path168" fill="#101010" transform="translate(161.502909, 117.217059) scale(-1, 1) rotate(-180.000000) translate(-161.502909, -117.217059) "></path>
            <polyline id="path170" fill="#101010" transform="translate(181.233142, 107.756007) scale(-1, 1) rotate(-180.000000) translate(-181.233142, -107.756007) " points="161.963143 117.936006 176.231143 107.07734 165.375143 92.8080075 171.05381 88.4866743 181.912476 102.754674 196.181809 91.8973409 200.503142 97.5773407 186.233809 108.434673 197.092476 122.704006 191.412476 127.02534 180.55381 112.75734 166.28581 123.614673 161.963143 117.936006"></polyline>
            <path d="M120.064478,89.6602062 C120.376478,90.4535395 121.273811,90.8428728 122.067144,90.5295395 C122.859144,90.2175395 123.248478,89.3202062 122.936478,88.5268729 C120.848478,83.230873 119.287144,77.3482065 118.671145,71.18554 C118.128478,65.7615401 118.315145,60.1015403 119.511144,54.4095404 C119.684478,53.5748738 119.148478,52.7562071 118.315145,52.5828738 C117.480478,52.4095405 116.661811,52.9455404 116.488478,53.7788738 C115.228478,59.7775403 115.033811,65.7535401 115.607145,71.4882066 C116.255145,77.9762065 117.885811,84.1375397 120.064478,89.6602062" id="path172" fill="#101010" transform="translate(119.172127, 71.594107) scale(-1, 1) rotate(-180.000000) translate(-119.172127, -71.594107) "></path>
            <path d="M112.272478,80.8279617 C111.435145,80.6719617 110.628478,81.2226283 110.472478,82.0586283 C110.315145,82.8946283 110.865811,83.701295 111.703145,83.8586283 L122.241811,85.8772949 C123.079144,86.0332949 123.885811,85.4839616 124.043144,84.6466283 C124.199144,83.8106283 123.648478,83.0039616 122.812478,82.8466283 L112.272478,80.8279617" id="path174" fill="#101010" transform="translate(117.257608, 83.352651) scale(-1, 1) rotate(-180.000000) translate(-117.257608, -83.352651) "></path>
            <path d="M112.165811,71.7200088 C111.328478,71.5626754 110.521811,72.1133421 110.365811,72.9493421 C110.209811,73.785342 110.760478,74.5920087 111.596478,74.749342 L122.136478,76.7680086 C122.972478,76.925342 123.779144,76.3746753 123.935144,75.5386753 C124.092478,74.701342 123.541811,73.8946754 122.705811,73.7386754 L112.165811,71.7200088" id="path176" fill="#101010" transform="translate(117.150682, 74.244009) scale(-1, 1) rotate(-180.000000) translate(-117.150682, -74.244009) "></path>
            <path d="M113.315145,63.0946719 C112.479145,62.9373386 111.672478,63.4880052 111.515145,64.3253385 C111.359145,65.1613385 111.909811,65.9680052 112.745811,66.1253385 L123.285811,68.1426718 C124.123144,68.3000051 124.929811,67.7493385 125.085811,66.9133385 C125.243144,66.0760052 124.691144,65.2706718 123.855144,65.1133385 L113.315145,63.0946719" id="path178" fill="#101010" transform="translate(118.300658, 65.618673) scale(-1, 1) rotate(-180.000000) translate(-118.300658, -65.618673) "></path>
            <path d="M185.42981,8.98241651 C186.121809,8.70508319 186.803143,8.39708319 187.468476,8.05974987 C188.959143,7.30508322 190.373809,6.40108324 191.681809,5.3624166 C192.981809,4.33308329 193.201809,2.43708334 192.171143,1.13841671 C191.143143,-0.160249927 189.245809,-0.381583254 187.947143,0.649083387 C186.953809,1.43708337 185.88181,2.12508335 184.751143,2.69708334 C183.62181,3.27041665 182.431143,3.72374998 181.20981,4.05841663 C179.987143,4.39441663 178.732476,4.61174995 177.468476,4.69574995 C176.204476,4.78108328 174.931143,4.73441662 173.67381,4.56374996 C172.03781,4.34241663 170.512477,5.5024166 170.291143,7.14108322 C170.06981,8.77841652 171.22981,10.3024165 172.868476,10.5250831 C174.524476,10.7490831 176.20181,10.8050831 177.868476,10.6944165 C178.611143,10.6437498 179.35381,10.5624165 180.091143,10.4477498 L189.481809,53.3370821 C186.093809,56.2757487 184.660476,60.9170819 185.860476,65.2877484 C187.571143,71.5277483 194.017809,75.1970815 200.256476,73.4864149 C206.495142,71.7757483 210.164476,65.3277484 208.453809,59.0904153 C207.257809,54.7264154 203.648476,51.4570821 199.240476,50.6597488 L185.42981,8.98241651 Z M198.232476,66.1050818 C196.068476,66.6997484 193.833809,65.4277484 193.240476,63.2637485 C192.647143,61.0997485 193.920476,58.8664153 196.083143,58.2730819 C198.245809,57.6797486 200.480476,58.9517486 201.072476,61.1144152 C201.665809,63.2784152 200.395142,65.5117484 198.232476,66.1050818" id="path180" fill="#101010" transform="translate(189.568943, 36.953212) scale(-1, 1) rotate(-180.000000) translate(-189.568943, -36.953212) "></path>
            <path d="M123.340478,148.849121 C147.139144,151.56512 184.683143,159.323787 210.973809,174.074453 C199.988476,145.095787 145.756477,130.459788 123.340478,148.849121" id="path182" fill="#101010" transform="translate(167.157143, 157.391897) scale(-1, 1) rotate(-180.000000) translate(-167.157143, -157.391897) "></path>
            <path d="M141.455144,159.443136 C141.639144,158.611136 141.112477,157.785803 140.279144,157.601803 C139.447144,157.417803 138.621811,157.944469 138.437811,158.777803 L134.119144,178.113802 C133.935144,178.947136 134.460477,179.771135 135.293811,179.956469 C136.127144,180.139135 136.952477,179.612469 137.135144,178.780469 L141.455144,159.443136" id="path184" fill="#101010" transform="translate(137.787111, 168.778904) scale(-1, 1) rotate(-180.000000) translate(-137.787111, -168.778904) "></path>
            <path d="M158.70981,156.526205 C158.895144,155.692872 158.367144,154.867538 157.535144,154.683538 C156.70181,154.500872 155.876477,155.027538 155.69381,155.859538 L150.93381,177.160871 C150.751144,177.994205 151.27781,178.818205 152.10981,179.002205 C152.943144,179.186205 153.767144,178.659538 153.952477,177.827538 L158.70981,156.526205" id="path186" fill="#101010" transform="translate(154.822246, 166.843106) scale(-1, 1) rotate(-180.000000) translate(-154.822246, -166.843106) "></path>
            <path d="M177.300476,152.429245 C177.52181,151.606579 177.031143,150.759912 176.207143,150.538579 C175.383143,150.318579 174.536476,150.809246 174.316476,151.633245 L168.320477,173.847912 C168.099143,174.671912 168.591143,175.518578 169.415143,175.738578 C170.239143,175.958578 171.08581,175.469245 171.30581,174.645245 L177.300476,152.429245" id="path188" fill="#101010" transform="translate(172.810523, 163.138625) scale(-1, 1) rotate(-180.000000) translate(-172.810523, -163.138625) "></path>
            <path d="M193.096476,146.813983 C193.361809,146.001983 192.920476,145.12865 192.108476,144.863316 C191.297809,144.59665 190.424476,145.037983 190.157809,145.849983 L183.26581,166.852649 C182.99781,167.663316 183.440476,168.536649 184.251143,168.803316 C185.06181,169.068649 185.935143,168.627316 186.201809,167.815316 L193.096476,146.813983" id="path190" fill="#101010" transform="translate(188.180561, 156.832994) scale(-1, 1) rotate(-180.000000) translate(-188.180561, -156.832994) "></path>
            <path d="M206.848476,140.797339 C207.161809,140.004006 206.775142,139.106673 205.983142,138.793339 C205.191142,138.478673 204.292476,138.866673 203.979142,139.658673 L196.439143,158.662672 C196.125809,159.454672 196.513809,160.352005 197.305809,160.665339 C198.099143,160.980005 198.995143,160.592005 199.309809,159.800005 L206.848476,140.797339" id="path192" fill="#101010" transform="translate(201.643903, 149.729339) scale(-1, 1) rotate(-180.000000) translate(-201.643903, -149.729339) "></path>
            <path d="M228.492475,112.611269 C228.445808,111.997936 228.373808,111.387269 228.273808,110.780603 C228.049808,109.421936 227.692475,108.087269 227.201808,106.800603 C226.715142,105.524603 225.280475,104.880603 224.004475,105.367269 C222.728475,105.852603 222.085809,107.287269 222.571142,108.563269 C222.943142,109.539269 223.217809,110.552603 223.387142,111.581936 C223.556475,112.612603 223.616475,113.660603 223.576475,114.701936 C223.536475,115.745936 223.396475,116.784602 223.149809,117.799269 C222.900475,118.813936 222.547142,119.801936 222.101809,120.747269 C221.521809,121.977936 222.055142,123.463269 223.285809,124.044602 C224.517809,124.624602 226.003142,124.091269 226.584475,122.860602 C227.171142,121.615269 227.631142,120.311269 227.959142,118.975269 C228.103142,118.377936 228.224475,117.775269 228.317808,117.168602 L264.337808,120.443269 C265.805808,123.833936 269.095141,126.112602 272.825807,126.256602 C278.152474,126.460602 282.63514,122.308602 282.840474,116.983269 C283.044474,111.657936 278.893807,107.173936 273.568474,106.969936 C269.844474,106.825936 266.379141,108.848603 264.657808,112.113936 L228.492475,112.611269 Z M276.540474,116.740602 C276.469807,118.588602 274.916474,120.027269 273.068474,119.955269 C271.221807,119.884602 269.783141,118.329936 269.855141,116.483269 C269.925807,114.637936 271.480474,113.199269 273.325807,113.269936 C275.172474,113.340603 276.611141,114.893936 276.540474,116.740602" id="path194" fill="#101010" transform="translate(252.357464, 115.734305) scale(-1, 1) rotate(-180.000000) translate(-252.357464, -115.734305) "></path>
            <path d="M118.559145,134.347727 C127.413811,135.550393 135.565811,129.346394 136.767144,120.491727 C137.969811,111.637061 131.765811,103.483728 122.911144,102.282394 C114.056478,101.081061 105.904478,107.283728 104.703145,116.138394 C103.500478,124.994394 109.704478,133.14506 118.559145,134.347727" id="path196" fill="#101010" transform="translate(120.735144, 118.315201) scale(-1, 1) rotate(-180.000000) translate(-120.735144, -118.315201) "></path>
            <polyline id="path198" fill="#AFD5DF" transform="translate(120.735144, 118.314673) scale(-1, 1) rotate(-180.000000) translate(-120.735144, -118.314673) " points="120.289811 121.601339 124.997811 127.789339 128.731144 124.948005 124.021811 118.760005 130.209811 114.052006 127.369811 110.318672 121.181811 115.028006 116.472478 108.840006 112.739145 111.680006 117.448478 117.868005 111.260478 122.577339 114.100478 126.309339 120.289811 121.601339"></polyline>
            <path d="M122.911144,121.162454 C114.604478,120.034454 106.915145,125.425121 105.003145,133.409121 C105.021812,132.867787 105.068478,132.323787 105.143145,131.775787 C106.344478,122.921121 114.496478,116.717121 123.351144,117.919788 C132.207144,119.122454 138.409811,127.274454 137.208477,136.129121 C137.133811,136.677121 137.032477,137.214454 136.907144,137.739787 C137.192477,129.535787 131.219144,122.290454 122.911144,121.162454" id="path200" fill="#36778A" transform="translate(121.180227, 127.755231) scale(-1, 1) rotate(-180.000000) translate(-121.180227, -127.755231) "></path>
            <polyline id="path202" fill="#36778A" transform="translate(183.249143, 121.032006) scale(-1, 1) rotate(-180.000000) translate(-183.249143, -121.032006) " points="181.912476 129.306672 171.05381 115.038672 166.66981 118.374672 165.684477 117.078672 171.364477 112.757339 182.22181 127.025339 196.489809 116.168006 200.813809 121.848005 199.517809 122.833339 196.180476 118.449339 181.912476 129.306672"></polyline>
            <polyline id="path204" fill="#36778A" transform="translate(169.251810, 104.146675) scale(-1, 1) rotate(-180.000000) translate(-169.251810, -104.146675) " points="162.272477 108.436009 175.24581 98.5626753 176.231143 99.8586753 163.259143 109.730675 162.272477 108.436009"></polyline>
            <polyline id="path206" fill="#36778A" transform="translate(191.817809, 101.082675) scale(-1, 1) rotate(-180.000000) translate(-191.817809, -101.082675) " points="196.105809 108.062675 186.233809 95.0880086 187.529809 94.1026753 197.401809 107.076009 196.105809 108.062675"></polyline>
            <path d="M176.156476,149.066292 L176.84181,146.530292 C181.287143,148.170292 185.579143,150.243625 189.551143,152.707625 L188.880476,154.754292 C184.891143,152.511625 180.599143,150.603625 176.156476,149.066292 Z M137.037811,146.163625 C132.944477,147.190292 129.185811,148.738292 125.933811,150.847625 C129.223144,148.020959 133.120477,145.920959 137.411144,144.490292 L137.037811,146.163625 Z M140.361811,145.455625 L140.793811,143.518292 C145.383144,142.402292 150.327144,141.971626 155.399144,142.168959 L154.82581,144.732959 C149.815144,144.424959 144.923144,144.648959 140.361811,145.455625 L140.361811,145.455625 Z M157.93381,144.991625 L158.519144,142.368959 C163.647143,142.820959 168.856477,143.890292 173.91381,145.518292 L173.215143,148.108959 C168.191143,146.576959 163.024477,145.519625 157.93381,144.991625 L157.93381,144.991625 Z M204.144476,166.828958 L204.491142,165.956958 C206.984476,169.218292 208.996476,172.763625 210.399142,176.552958 C208.891142,173.083625 206.763142,169.830292 204.144476,166.828958 Z M191.603143,156.366292 L192.229809,154.460959 C195.957809,157.038292 199.348476,159.976958 202.248476,163.239625 L201.811142,164.342292 C198.836476,161.394292 195.384476,158.722292 191.603143,156.366292" id="path208" fill="#36778A" transform="translate(168.166476, 159.337815) scale(-1, 1) rotate(-180.000000) translate(-168.166476, -159.337815) "></path>
            <path d="M117.076478,69.4025598 C117.452478,70.9798931 117.880478,72.527893 118.352478,74.0385596 C113.440478,70.4305597 109.019145,66.2305598 105.177812,61.56256 C107.219145,63.1625599 109.333811,64.6745599 111.519145,66.0892265 C111.639145,66.6878932 112.111145,67.1812265 112.745811,67.3012265 L113.761811,67.4958931 C114.851145,68.1545598 115.956478,68.7905598 117.076478,69.4025598 L117.076478,69.4025598 Z M187.855143,74.807893 C204.221809,68.8865598 218.341809,58.1492267 228.440475,44.2545604 C223.404475,55.8732268 215.480475,65.7958932 205.681809,73.2532263 C200.957809,76.8478929 195.797809,79.8692262 190.315143,82.2318928 L187.855143,74.807893 Z M122.625811,76.9492262 C121.932478,75.127893 121.304478,73.239893 120.755144,71.2985597 C131.301811,76.4185596 143.068477,79.4625595 155.540477,79.8852262 C164.644477,80.1932262 173.468476,79.0812262 181.79781,76.7492262 L183.54981,84.7558927 C173.57381,87.9265593 162.752477,88.9892259 151.68981,87.4865593 C141.009811,86.037226 131.184478,82.3438928 122.625811,76.9492262" id="path210" fill="#FFFFFF" transform="translate(166.809143, 66.206617) scale(-1, 1) rotate(-180.000000) translate(-166.809143, -66.206617) "></path>
            <path d="M118.976478,235.204005 C119.089811,235.333338 119.203145,235.457338 119.316478,235.578671 C119.316478,235.578671 114.151145,211.670672 109.828478,179.549339 C114.135145,199.945339 122.972478,220.052005 130.425811,225.505338 C138.980477,225.304005 146.996477,225.900005 154.431144,227.049339 L154.620477,229.516005 C154.704477,230.649338 155.692477,231.500005 156.82581,231.416005 C157.960477,231.332005 158.80981,230.344005 158.72581,229.210671 L158.615144,227.764005 C195.379143,234.641338 216.755142,254.606671 216.755142,254.606671 C215.687142,255.073337 214.620475,255.536004 213.553809,255.996004 C202.216476,246.509338 188.153809,240.002671 172.42581,237.868004 C155.315144,235.545338 138.725811,238.733338 124.448478,246.070671 C122.521811,247.060004 120.636478,248.126671 118.797811,249.264004 C116.960478,247.953338 113.289811,245.330671 108.487145,241.858671 C109.904478,239.982671 112.975145,236.197338 117.085811,232.725338 C117.715145,233.660005 118.347145,234.492005 118.976478,235.204005" id="path212" fill="#36778A" transform="translate(162.621143, 217.772672) scale(-1, 1) rotate(-180.000000) translate(-162.621143, -217.772672) "></path>
            <path d="M191.624476,270.293337 C188.408476,273.812004 185.320476,278.384003 182.751143,283.065337 L180.880476,282.093337 C183.431143,276.220004 187.188476,270.117337 192.701809,265.46667 C194.339143,265.889337 197.860476,266.972004 202.468476,268.97067 L201.083142,271.372004 C199.037809,270.413337 197.211143,269.645337 195.796476,269.184004 L193.364476,268.393337 L191.624476,270.293337" id="path214" fill="#36778A" transform="translate(191.674476, 274.266004) scale(-1, 1) rotate(-180.000000) translate(-191.674476, -274.266004) "></path>
            <path d="M208.619142,277.892002 C207.288476,277.172003 205.959142,276.472003 204.667142,275.814669 L206.091142,273.346669 C206.095142,273.340003 206.099142,273.332003 206.101809,273.325336 C207.376476,273.942669 208.705809,274.620003 210.077809,275.364003 L208.619142,277.892002" id="path216" fill="#36778A" transform="translate(207.372475, 275.608669) scale(-1, 1) rotate(-180.000000) translate(-207.372475, -275.608669) "></path>
            <path d="M212.104476,271.640002 L213.540475,269.152002 C214.815142,269.925335 216.071142,270.764002 217.241809,271.662668 L215.960475,273.885335 C214.721809,273.144002 213.424475,272.389335 212.104476,271.640002" id="path218" fill="#36778A" transform="translate(214.673142, 271.518669) scale(-1, 1) rotate(-180.000000) translate(-214.673142, -271.518669) "></path>
            <path d="M219.353809,263.437335 L220.289809,261.814669 C222.792475,264.249335 224.953809,266.536002 226.171142,268.686668 L225.403142,267.830668 C224.624475,266.961335 222.348475,265.338668 219.353809,263.437335" id="path220" fill="#36778A" transform="translate(222.762475, 265.250669) scale(-1, 1) rotate(-180.000000) translate(-222.762475, -265.250669) "></path>
            <path d="M180.911143,247.505336 C178.54581,252.338669 176.784476,257.112002 176.047143,260.800002 L175.667143,262.702669 C175.667143,262.702669 176.268476,255.396002 179.400476,246.720002 L180.911143,247.505336" id="path222" fill="#36778A" transform="translate(178.289143, 254.711336) scale(-1, 1) rotate(-180.000000) translate(-178.289143, -254.711336) "></path>
            <path d="M211.403142,142.391555 C198.089809,129.391555 179.883143,121.379556 159.80581,121.379556 C146.50581,121.379556 134.028477,124.894222 123.249811,131.046222 C116.401811,134.954222 110.239145,139.924889 104.988478,145.736888 C108.628478,141.287555 112.773811,137.294222 117.324478,133.832889 C119.088478,132.490222 120.911144,131.228889 122.791144,130.050222 C136.743144,121.306222 153.723144,117.210222 171.316477,119.598222 C187.605809,121.810222 201.905809,129.238222 212.759142,139.968889 C215.207142,142.388889 217.479142,144.976888 219.559142,147.710222 C228.665808,159.676888 234.095142,174.442221 234.447142,190.166221 L233.493808,190.179554 C232.229808,171.486221 224.009809,154.702222 211.403142,142.391555" id="path224" fill="#36778A" transform="translate(169.717810, 154.553114) scale(-1, 1) rotate(-180.000000) translate(-169.717810, -154.553114) "></path>
        </g>
    </g>
</svg>